<svg width="14" height="17" viewBox="0 0 14 17" fill="none" xmlns="http://www.w3.org/2000/svg">
<g id="vector">
<path id="Vector" d="M4.48972 11.9996C4.08179 11.9996 3.69087 11.77 3.5039 11.4255L2.65406 9.8019L2.33112 9.6543L0.104543 14.2136C0.0365563 14.3448 0.155534 14.4924 0.308505 14.4596L2.53508 14.0496C2.62007 14.0332 2.68806 14.066 2.72205 14.1316L3.80984 16.0341C3.87783 16.1653 4.0648 16.1489 4.13278 16.0177L6.37636 11.4255L4.82965 11.9176C4.71067 11.9668 4.60869 11.9996 4.48972 11.9996Z" fill="#E12963"/>
<path id="Vector_2" d="M13.1244 14.2144L10.8978 9.63867L10.5748 9.78628L9.725 11.4099C9.53803 11.7707 9.1641 11.9839 8.73918 11.9839C8.62021 11.9839 8.50123 11.9675 8.39925 11.9347L6.85254 11.4427L9.09612 16.0348C9.1641 16.166 9.35107 16.166 9.41905 16.0512L10.5068 14.1488C10.5408 14.0832 10.6258 14.0504 10.6938 14.0668L12.9204 14.4768C13.0734 14.4932 13.1923 14.3456 13.1244 14.2144Z" fill="#E12963"/>
<path id="Vector_3" d="M6.61441 3.32324C5.1017 3.32324 3.87793 4.50407 3.87793 5.96371C3.87793 7.42335 5.1017 8.62058 6.61441 8.62058C8.12713 8.62058 9.3509 7.43975 9.3509 5.98011C9.3509 4.52047 8.12713 3.32324 6.61441 3.32324Z" fill="#E12963"/>
<path id="Vector_4" d="M9.14705 11.1302L10.0309 9.45732C10.0819 9.37532 10.1499 9.30972 10.2348 9.26052L11.9685 8.4077C12.1725 8.30929 12.2575 8.07969 12.1895 7.88288L11.5946 6.09524C11.5606 6.01324 11.5606 5.91483 11.5946 5.81643L12.1895 4.02878C12.2575 3.81558 12.1555 3.60237 11.9685 3.50397L10.2348 2.65115C10.1499 2.60195 10.0819 2.53634 10.0309 2.45434L9.14705 0.814299C9.04507 0.617494 8.80711 0.535491 8.60315 0.601093L6.7505 1.17511C6.66552 1.20791 6.56354 1.20791 6.46155 1.17511L4.6259 0.584693C4.40494 0.519091 4.18398 0.617494 4.082 0.814299L3.19817 2.48714C3.14718 2.56914 3.07919 2.63475 2.99421 2.68395L1.26054 3.53677C1.05657 3.63517 0.954593 3.86478 1.03958 4.06158L1.63447 5.84923C1.66846 5.93123 1.66846 6.02964 1.63447 6.12804L1.03958 7.91568C0.97159 8.12889 1.07357 8.3421 1.26054 8.4405L2.99421 9.29332C3.07919 9.34252 3.14718 9.40812 3.19817 9.49013L4.082 11.163C4.18398 11.3598 4.42194 11.4418 4.6259 11.3762L6.47855 10.8022C6.56354 10.7694 6.66552 10.7694 6.7675 10.8022L8.62015 11.3762C8.82411 11.409 9.04507 11.327 9.14705 11.1302ZM6.61453 9.24412C4.74488 9.24412 3.23216 7.78448 3.23216 5.98043C3.23216 4.17639 4.74488 2.71675 6.61453 2.71675C8.48417 2.71675 9.99689 4.17639 9.99689 5.98043C9.99689 7.76808 8.48417 9.24412 6.61453 9.24412Z" fill="#E12963"/>
</g>
</svg>
